<?xml version="1.0" encoding="UTF-8"?>
<svg xmlns="http://www.w3.org/2000/svg" viewBox="0 0 1000 230" width="2600" height="598">
<style>
    .dg-box{fill:rgba(255,255,255,0.05);stroke:rgba(255,255,255,0.13);stroke-width:1.5}
    .dg-box-a{fill:#e7b24a22;stroke:#e7b24a;stroke-width:2}
    .dg-box-b{fill:#57c79a22;stroke:#57c79a;stroke-width:2}
    .dg-label{fill:#f3f1ea;font-family:Inter,Arial,sans-serif;font-weight:600}
    .dg-sub{fill:#aebfb6;font-family:Inter,Arial,sans-serif;font-weight:400}
    .dg-a{fill:#e7b24a}
    .dg-b{fill:#57c79a}
    .dg-arrow{stroke:#e7b24a;stroke-width:2.5;fill:none}
    .dg-arrow-head{fill:#e7b24a}
  
text{font-family:Inter,Arial,sans-serif}</style>
<rect x="0" y="0" width="1000" height="230" fill="#07241d"/>

        <rect class="dg-box-a" x="380" y="20" width="240" height="80" rx="8"></rect>
        <text class="dg-a" x="500" y="55" text-anchor="middle" font-size="20" font-weight="700">Mission</text>
        <text class="dg-sub" x="500" y="80" text-anchor="middle" font-size="14">why we exist</text>
        <rect class="dg-box-b" x="120" y="160" width="220" height="60" rx="8"></rect>
        <text class="dg-b" x="230" y="196" text-anchor="middle" font-size="16" font-weight="700">Daily choices</text>
        <rect class="dg-box-b" x="390" y="160" width="220" height="60" rx="8"></rect>
        <text class="dg-b" x="500" y="196" text-anchor="middle" font-size="16" font-weight="700">Goals</text>
        <rect class="dg-box-b" x="660" y="160" width="220" height="60" rx="8"></rect>
        <text class="dg-b" x="770" y="196" text-anchor="middle" font-size="16" font-weight="700">Priorities</text>
        <path class="dg-arrow" d="M470 102 L240 158"></path><polygon class="dg-arrow-head" points="240,158 248,146 256,156"></polygon>
        <path class="dg-arrow" d="M500 102 V158"></path><polygon class="dg-arrow-head" points="500,158 493,146 507,146"></polygon>
        <path class="dg-arrow" d="M530 102 L760 158"></path><polygon class="dg-arrow-head" points="760,158 744,156 752,146"></polygon>
      
</svg>